<?xml version="1.0"?>
<svg width="640" height="480" xmlns="http://www.w3.org/2000/svg" xmlns:svg="http://www.w3.org/2000/svg">
 <!-- Created with SVG-edit - https://github.com/SVG-Edit/svgedit-->

 <g class="layer">
  <title>Layer 1</title>
  <rect fill="#0000ff" height="296.000002" id="svg_10" stroke="#000000" stroke-dasharray="null" stroke-linecap="null" stroke-linejoin="null" stroke-width="0" width="479.000025" x="78.999981" y="84"/>
  <text fill="#000000" font-family="serif" font-size="24" id="svg_11" stroke="#000000" stroke-dasharray="null" stroke-linecap="null" stroke-linejoin="null" stroke-width="0" text-anchor="middle" transform="matrix(4.34011 0 0 6.11656 -1030.94 -1092.92)" x="286.388686" xml:space="preserve" y="225.129009">D</text>
  <text fill="#000000" font-family="serif" font-size="24" id="svg_12" stroke="#000000" stroke-dasharray="null" stroke-linecap="null" stroke-linejoin="null" stroke-width="0" text-anchor="middle" transform="matrix(2.75351 0 0 3.42315 -700.299 -511.539)" x="360.769665" xml:space="preserve" y="226.231493">M</text>
  <text fill="#000000" font-family="serif" font-size="24" id="svg_17" stroke="#000000" stroke-dasharray="null" stroke-linecap="null" stroke-linejoin="null" stroke-width="0" text-anchor="middle" x="471.5" xml:space="preserve" y="219.5"/>
  <text fill="#000000" font-family="serif" font-size="24" id="svg_18" stroke="#000000" stroke-dasharray="null" stroke-linecap="null" stroke-linejoin="null" stroke-width="0" text-anchor="middle" transform="matrix(2.6721 0 0 3.53049 -634.336 -531.697)" x="371.589823" xml:space="preserve" y="225.896433">M</text>
  <text fill="#000000" font-family="serif" font-size="24" id="svg_19" stroke="#000000" stroke-dasharray="null" stroke-linecap="null" stroke-linejoin="null" stroke-width="0" text-anchor="middle" transform="matrix(5.01852 0 0 5.34033 -1845.96 -918.201)" x="454.059124" xml:space="preserve" y="223.380208">H</text>
  <polygon cx="454.5" cy="171.5" fill="#0000ff" id="svg_21" orient="point" point="5" points="312,6.566490173339844 331.0207824707031,52.6085090637207 388.9406433105469,53.601627349853516 342.7762451171875,83.05028247833252 359.5519104003906,129.7060661315918 312,101.8643250465393 264.4480895996094,129.7060661315918 281.2237548828125,83.05028247833252 235.05935668945312,53.601627349853516 292.9792175292969,52.6085090637207 312,6.566490173339844 331.0207824707031,52.6085090637207 " r="50.933508" r2="20.373403" shape="star" stroke="#000000" stroke-width="0" strokeWidth="0" strokecolor="#000000"/>
 </g>
</svg>